<?xml version="1.0" encoding="utf-8"?>
<!-- Generator: Adobe Illustrator 23.0.1, SVG Export Plug-In . SVG Version: 6.00 Build 0)  -->
<svg version="1.1" id="Capa_1" xmlns="http://www.w3.org/2000/svg" xmlns:xlink="http://www.w3.org/1999/xlink" x="0px" y="0px"
	 viewBox="0 0 512 512" style="enable-background:new 0 0 512 512;" xml:space="preserve">
<style type="text/css">
	.st0{fill:#385277;}
</style>
<g>
	<g>
		<path class="st0" d="M223,107.7l-15.4-10.2c-3.4-2.2-7.9-1.3-10.1,2.1c-2.2,3.4-1.3,7.9,2.1,10.1l15.4,10.2c1.2,0.8,2.6,1.2,4,1.2
			c2.4,0,4.7-1.2,6.1-3.3C227.3,114.4,226.3,109.9,223,107.7z"/>
	</g>
</g>
<g>
	<g>
		<path class="st0" d="M317,169.6l-54.1-35.7c-3.4-2.2-7.9-1.3-10.1,2.1c-2.2,3.4-1.3,7.9,2.1,10.1l54.1,35.7c1.2,0.8,2.6,1.2,4,1.2
			c2.4,0,4.7-1.2,6.1-3.3C321.2,176.3,320.3,171.8,317,169.6z"/>
	</g>
</g>
<g>
	<g>
		<path class="st0" d="M296.9,197.7l-109.4-72.1c-3.4-2.2-7.9-1.3-10.1,2.1c-2.2,3.4-1.3,7.9,2.1,10.1l109.4,72.1
			c1.2,0.8,2.6,1.2,4,1.2c2.4,0,4.7-1.2,6.1-3.3C301.2,204.4,300.2,199.9,296.9,197.7z"/>
	</g>
</g>
<g>
	<g>
		<path class="st0" d="M227,346.6c-21.7-21.7-56.9-21.7-78.6,0c-21.7,21.7-21.7,56.9,0,78.6c10.8,10.8,25.1,16.3,39.3,16.3
			c14.2,0,28.5-5.4,39.3-16.3C248.6,403.6,248.6,368.3,227,346.6z M216.6,414.9c-16,16-42,16-58,0c-16-16-16-42,0-58
			c8-8,18.5-12,29-12c10.5,0,21,4,29,12C232.6,372.9,232.6,398.9,216.6,414.9z"/>
	</g>
</g>
<g>
	<g>
		<path class="st0" d="M120.6,400.2H71v-28.5h49.6c4,0,7.3-3.3,7.3-7.3s-3.3-7.3-7.3-7.3H70.9c-0.4-24.1-20.1-43.5-44.3-43.5H7.3
			c-4,0-7.3,3.3-7.3,7.3V451c0,4,3.3,7.3,7.3,7.3h19.4c24.2,0,43.9-19.5,44.3-43.5h49.6c4,0,7.3-3.3,7.3-7.3
			S124.6,400.2,120.6,400.2z M56.4,364.4v43.1v6.5c0,16.4-13.3,29.7-29.7,29.7H14.6V328.2h12.1c16.4,0,29.7,13.3,29.7,29.7V364.4z"
			/>
	</g>
</g>
<g>
	<g>
		<path class="st0" d="M506.2,303.7L475,283.1c-5.9-3.9-13.9-2.3-17.8,3.7l-3,4.6l-14.1-9.3l42.7-15.1c7.2-2.5,12.3-8.9,13.2-16.5
			c0.9-7.6-2.5-15-8.9-19.2L223.9,58.1c-12.1-8-28.4-4.6-36.4,7.5l-52.7,79.9c-7,10.7-5.2,24.7,3.6,33.3l-10.9,16.5
			c-5.3,8.1-3.1,19,5,24.3l104.1,68.6l-27.5,27.5c-2.8,2.8-2.8,7.5,0,10.3c2.8,2.8,7.5,2.8,10.3,0l29.6-29.6l24.3,16l-31.2,31.2
			c-2.8,2.8-2.8,7.5,0,10.3c1.4,1.4,3.3,2.1,5.2,2.1c1.9,0,3.7-0.7,5.2-2.1l33.3-33.3l73.7,48.5c3,2,6.3,2.9,9.6,2.9
			c5.7,0,11.3-2.8,14.7-7.9l7.6-11.6l15.8,10.4l-3,4.6c-3.9,5.9-2.3,13.9,3.7,17.8l31.2,20.5h0c2.2,1.4,4.6,2.1,7.1,2.1
			c4.2,0,8.3-2,10.8-5.8l53.1-80.6C513.8,315.6,512.1,307.6,506.2,303.7z M147,153.5l52.6-79.9c2.2-3.4,6-5.3,9.8-5.3
			c2.2,0,4.4,0.6,6.4,1.9l263.2,173.4c2.6,1.7,2.5,4.2,2.4,5.2c-0.1,1-0.7,3.5-3.6,4.5l-125.2,44.1c-2.6,0.9-5.4,0.9-7.9-0.1
			c-0.8-0.3-1.7-0.7-2.4-1.2c0,0,0,0,0,0L152.3,171h0l-1.9-1.3c-2.6-1.7-4.4-4.4-5-7.4C144.7,159.2,145.3,156.1,147,153.5z
			 M371.6,356c-0.9,1.4-2.7,1.7-4.1,0.8L140.6,207.4c-1.4-0.9-1.7-2.7-0.8-4.1l10.6-16.1l184,121.2c0.5,0.3,1,0.6,1.5,0.9
			c0.2,0.1,0.3,0.2,0.5,0.3c0.4,0.2,0.7,0.4,1.1,0.6c0.2,0.1,0.4,0.2,0.5,0.3c0.4,0.2,0.8,0.3,1.2,0.5c0.2,0.1,0.3,0.1,0.5,0.2
			c0.5,0.2,1.1,0.4,1.6,0.6c0.1,0,0.2,0.1,0.3,0.1c0.5,0.1,0.9,0.3,1.4,0.4c0.2,0,0.4,0.1,0.6,0.1c0.4,0.1,0.8,0.2,1.2,0.2
			c0.2,0,0.4,0.1,0.6,0.1c0.5,0.1,0.9,0.1,1.4,0.1c0.1,0,0.2,0,0.4,0c0.6,0,1.2,0.1,1.7,0.1c0,0,0.1,0,0.1,0c0.1,0,0.2,0,0.2,0
			c0.6,0,1.1,0,1.7-0.1c0.2,0,0.3,0,0.5,0c0.7-0.1,1.3-0.1,1.9-0.2c0.1,0,0.1,0,0.2,0c0.6-0.1,1.2-0.2,1.8-0.4
			c0.2,0,0.3-0.1,0.5-0.1c0.6-0.2,1.3-0.4,1.9-0.6c0,0,0,0,0,0l56.7-20l-18.1,27.5L371.6,356z M399.4,340.2l31-47l15.8,10.4l-31,47
			L399.4,340.2z M445.6,392.7L417.2,374l51.2-77.8l28.3,18.7L445.6,392.7z"/>
	</g>
</g>
</svg>
