<?xml version="1.0" encoding="utf-8"?>
<!-- Generator: Adobe Illustrator 23.0.1, SVG Export Plug-In . SVG Version: 6.00 Build 0)  -->
<svg version="1.1" id="Capa_1" xmlns="http://www.w3.org/2000/svg" xmlns:xlink="http://www.w3.org/1999/xlink" x="0px" y="0px"
	 viewBox="0 0 512 512" style="enable-background:new 0 0 512 512;" xml:space="preserve">
<style type="text/css">
	.st0{fill:#385277;}
</style>
<g>
	<g>
		<path class="st0" d="M500.6,145.3l-47.9-23.9c-3.6-1.8-8-0.3-9.8,3.3c-1.8,3.6-0.3,8,3.3,9.8l47.9,23.9c2,1,3.3,3.1,3.3,5.3v24.2
			c0,3-2,4.5-2.8,5.1c-0.6,0.4-1.8,1-3.4,0.9c0,0,0,0-0.1,0c-0.4,0-0.8-0.1-1.2-0.2c0,0,0,0-0.1,0c-0.2,0-0.3-0.1-0.5-0.2
			c0,0-0.1,0-0.1,0c-0.2-0.1-0.3-0.1-0.5-0.2c0,0,0,0,0,0L264,81.1c-5-2.5-11-2.5-16,0L23.2,193.2c0,0,0,0,0,0
			c-0.2,0.1-0.3,0.2-0.5,0.2c0,0-0.1,0-0.1,0c-0.2,0.1-0.3,0.1-0.5,0.2c0,0,0,0-0.1,0c-0.4,0.1-0.8,0.2-1.2,0.2c0,0,0,0-0.1,0
			c-1.6,0.1-2.8-0.5-3.4-0.9c-0.8-0.5-2.8-2.1-2.8-5.1v-24.2c0-2.3,1.3-4.3,3.3-5.3l236.6-118c0.9-0.5,2.1-0.5,3,0l145.9,72.8
			c3.6,1.8,8,0.3,9.8-3.3c1.8-3.6,0.3-8-3.3-9.8L264,27.3c-5-2.5-11-2.5-16,0l-236.6,118C4.4,148.8,0,155.8,0,163.7v24.2
			c0,7.2,3.6,13.7,9.7,17.5c1.4,0.8,2.8,1.5,4.2,2v266.8c0,6.9,5.6,12.4,12.4,12.4h15.5c6.9,0,12.4-5.6,12.4-12.4V194l200.2-99.9
			c0.9-0.5,2.1-0.5,3,0L457.7,194v280.1c0,6.9,5.6,12.4,12.4,12.4h15.5c6.9,0,12.4-5.6,12.4-12.4V207.4c1.5-0.5,2.9-1.2,4.2-2
			c6.1-3.8,9.7-10.3,9.7-17.5v-24.2C512,155.8,507.6,148.8,500.6,145.3z M39.7,472H28.6V206.8c0.4-0.2,0.8-0.3,1.1-0.5h0l10-5V472z
			 M483.4,472h-11.1V201.3l10,5h0c0.1,0.1,0.3,0.1,0.4,0.2c0.2,0.1,0.5,0.2,0.7,0.3c0,0,0,0,0,0V472z"/>
	</g>
</g>
<g>
	<g>
		<path class="st0" d="M433.6,293.2h-20.9c-3.3,0-6.4,1-9,2.8l-18.2-57.4c-4.2-13.2-16.4-22.1-30.3-22.1H156.8
			c-13.9,0-26.1,8.9-30.3,22.1l-18.2,57.3c-2.5-1.7-5.6-2.7-8.8-2.7H78.6c-8.7,0-15.9,7.1-15.9,15.9v10.5c0,8.7,7.1,15.9,15.9,15.9
			h8c-4.4,7.3-6.9,15.9-6.9,25v55.9c0,11.6,7.6,21.5,18,25v23.1c0,12.2,10,22.2,22.2,22.2h22.1c12.2,0,22.2-10,22.2-22.2v-21.8
			h183.4v21.8c0,12.2,10,22.2,22.2,22.2H392c12.2,0,22.2-10,22.2-22.2v-23.1c10.5-3.5,18-13.4,18-25v-55.9c0-9.1-2.5-17.7-6.9-25
			h8.2c8.7,0,15.9-7.1,15.9-15.9v-10.5C449.4,300.3,442.3,293.2,433.6,293.2z M140.4,243c2.3-7.2,8.8-12,16.4-12h198.4
			c7.5,0,14.1,4.8,16.4,12l22.1,69.6c-0.5-0.1-1.1-0.2-1.6-0.3c-0.2,0-0.3-0.1-0.5-0.1c-0.5-0.1-1-0.2-1.5-0.2
			c-0.3,0-0.6-0.1-0.9-0.1c-0.4,0-0.8-0.1-1.3-0.1c-0.4,0-0.8-0.1-1.2-0.1c-0.3,0-0.6,0-1-0.1c-0.8,0-1.5-0.1-2.3-0.1H128.6
			c-0.8,0-1.5,0-2.3,0.1c-0.3,0-0.6,0-1,0.1c-0.4,0-0.8,0.1-1.2,0.1c-0.4,0-0.8,0.1-1.3,0.1c-0.3,0-0.6,0.1-0.9,0.1
			c-0.5,0.1-1,0.1-1.5,0.2c-0.2,0-0.3,0.1-0.5,0.1c-0.5,0.1-1.1,0.2-1.6,0.3L140.4,243z M121.7,326.9
			C121.7,326.9,121.7,326.9,121.7,326.9c0.5-0.1,0.9-0.2,1.4-0.2c0.2,0,0.4-0.1,0.6-0.1c0.4-0.1,0.7-0.1,1.1-0.1
			c0.3,0,0.7-0.1,1-0.1c0.3,0,0.5,0,0.8-0.1c0.6,0,1.3-0.1,2-0.1h254.8c0.7,0,1.3,0,2,0.1c0.3,0,0.5,0,0.8,0.1c0.4,0,0.7,0.1,1,0.1
			c0.4,0,0.7,0.1,1.1,0.1c0.2,0,0.4,0.1,0.6,0.1c0.5,0.1,0.9,0.1,1.3,0.2c0,0,0,0,0,0c3.3,0.7,6.5,1.8,9.3,3.4
			c-11.6,15.9-30.2,25.5-50.1,25.5H162.5c-19.9,0-38.5-9.6-50.1-25.5C115.2,328.7,118.4,327.5,121.7,326.9z M78.6,320.8
			c-0.7,0-1.3-0.6-1.3-1.3v-10.5c0-0.7,0.6-1.3,1.3-1.3h20.9c0.7,0,1.3,0.6,1.3,1.3v10.5c0,0.1,0,0.3-0.1,0.4l0,0.1
			c-0.2,0.4-0.6,0.7-1.1,0.7H78.6z M142.1,472H120c-4.2,0-7.6-3.4-7.6-7.6v-21.8h37.3v21.8h0C149.7,468.6,146.3,472,142.1,472z
			 M392,472h-22.1c-4.2,0-7.6-3.4-7.6-7.6v-21.8h37.3v21.8h0C399.6,468.6,396.2,472,392,472z M417.7,416.3L417.7,416.3
			c0,6.2-4.8,11.3-10.9,11.7c-0.1,0-0.1,0-0.2,0l-0.4,0l-300,0l-0.7,0c-0.1,0-0.1,0-0.2,0c-6.1-0.4-10.9-5.5-10.9-11.7v-55.9
			c0-7.7,2.6-14.9,6.9-20.6c14.3,19.1,37,30.6,61.2,30.6h187.1c24.2,0,46.9-11.5,61.2-30.6c4.3,5.7,6.9,12.9,6.9,20.6L417.7,416.3
			L417.7,416.3z M434.8,319.6c0,0.7-0.6,1.3-1.3,1.3h-20.9c-0.7,0-1.3-0.6-1.3-1.3v-10.5c0-0.7,0.6-1.3,1.3-1.3h20.9
			c0.7,0,1.3,0.6,1.3,1.3V319.6z"/>
	</g>
</g>
<g>
	<g>
		<path class="st0" d="M163.2,402.8l-5.2-17.9c-1.2-4-4.4-7.2-8.4-8.2l-31.8-8.3c-3.9-1-8,0-10.9,2.6c-3,2.6-4.4,6.6-3.9,10.5
			l2.4,17.7c0.7,4.9,4.2,8.8,9,10l34.6,8.5c0.9,0.2,1.9,0.3,2.8,0.3c3.2,0,6.4-1.3,8.6-3.7C163.3,411.4,164.4,406.9,163.2,402.8z
			 M119.5,395.5l-1.6-12l26.5,6.9l3.5,12.1L119.5,395.5z"/>
	</g>
</g>
<g>
	<g>
		<path class="st0" d="M405.2,371c-3-2.6-7.1-3.6-10.9-2.6l-31.8,8.3c-4,1.1-7.3,4.2-8.4,8.2l-5.2,17.9c-1.2,4.1-0.1,8.5,2.9,11.6
			c2.3,2.4,5.4,3.7,8.6,3.7c0.9,0,1.9-0.1,2.8-0.3l34.6-8.5c4.8-1.2,8.3-5.1,9-10l2.4-17.7C409.7,377.6,408.2,373.6,405.2,371z
			 M392.5,395.5l-28.4,7l3.5-12.1l26.5-6.9L392.5,395.5z"/>
	</g>
</g>
<g>
	<g>
		<path class="st0" d="M338.4,379.7H247c-4,0-7.3,3.3-7.3,7.3c0,4,3.3,7.3,7.3,7.3h91.4c4,0,7.3-3.3,7.3-7.3
			C345.7,383,342.4,379.7,338.4,379.7z"/>
	</g>
</g>
<g>
	<g>
		<path class="st0" d="M198.8,379.7h-26c-4,0-7.3,3.3-7.3,7.3c0,4,3.3,7.3,7.3,7.3h26c4,0,7.3-3.3,7.3-7.3S202.9,379.7,198.8,379.7z
			"/>
	</g>
</g>
<g>
	<g>
		<path class="st0" d="M333.9,401.8H178.1c-4,0-7.3,3.3-7.3,7.3s3.3,7.3,7.3,7.3h155.9c4,0,7.3-3.3,7.3-7.3S338,401.8,333.9,401.8z"
			/>
	</g>
</g>
</svg>
