<?xml version="1.0" encoding="utf-8"?>
<!-- Generator: Adobe Illustrator 23.0.1, SVG Export Plug-In . SVG Version: 6.00 Build 0)  -->
<svg version="1.1" id="Capa_1" xmlns="http://www.w3.org/2000/svg" xmlns:xlink="http://www.w3.org/1999/xlink" x="0px" y="0px"
	 viewBox="0 0 512 512" style="enable-background:new 0 0 512 512;" xml:space="preserve">
<style type="text/css">
	.st0{fill:#385277;}
</style>
<path class="st0" d="M406.2,374.8c0,0,79.6-37,79.6-37c15.8-7.4,26.1-23.4,26.1-40.8c0-19.4-12.4-36.5-30.8-42.7l-71.8-23.9
	c-9.4-3.1-16.4-11.5-17.3-21.4c-1.3-14.7,10.2-27,24.6-27h49.5c23.4,0,44.4-19.1,45.7-42.5c1.4-25.9-19.3-47.5-44.9-47.5
	c-10.4,0-188.2,0-197,0V30h15c6.5,0,12.3-4.1,14.2-10.2C302.4,9.4,294.8,0,285,0H15C8.6,0,2.7,4.1,0.8,10.2
	C-2.4,20.6,5.2,30,15.1,30h15v62h-15c-8.3,0-15,6.7-15,15v90c0,8.3,6.7,15,15,15h15v210H15c-6.5,0-12.3,4.1-14.2,10.2
	c-3.2,10.3,4.4,19.7,14.3,19.7H497c6.5,0,12.3-4.1,14.2-10.2c3.2-10.3-4.4-19.7-14.3-19.7c-12.2,0-60.6,0-79.8,0
	c-10.8,0-20.7-6.8-24-17.1C389.2,392.5,395.3,379.8,406.2,374.8L406.2,374.8z M362.2,211.5c1.9,21.9,17.1,40.4,38,47.3l71.5,23.8
	c6.1,2,10.3,7.8,10.3,14.2c0,10.3-10.1,17.4-19.7,14.2l-72.3-24.1c-44-14.7-67.4-60.9-54.4-105.1h32.4
	C363.4,190.7,361.3,200.9,362.2,211.5L362.2,211.5z M90,182v-60h30v60H90z M150,122h30v60h-30V122z M210,122h30v60h-30V122z
	 M240,301.9h-30v-30h30V301.9z M210,331.9h30v30h-30V331.9z M240,211.9v30h-30v-30H240z M210,391.9h30v30h-30V391.9z M270,182h34.6
	c-5.9,27.5-1.8,55.8,11.6,80.2c8.9,16.2,21.4,29.7,36.5,39.8c-31.2,20.9-50.7,56.3-50.7,95.2c0,8.4,0.9,16.7,2.7,24.7H270V182z
	 M467,122L467,122c8.8,0,15.9,7.7,14.9,16.7c-0.9,7.6-7.6,13.3-15.3,13.3c-20.1,0-172.4,0-196.5,0v-30H467z M60,30h180v62H60V30z
	 M30.1,122h30v60h-30V122z M60,211.9h120v210H60V211.9z M362,397.2c0,8.9,2.1,17.3,5.9,24.7h-32.2c-2.4-8-3.7-16.3-3.7-24.7
	c0-35.6,22.1-67.1,55.2-79.4l41.1,13.7l-34.6,16.1C374.4,356.5,362,376,362,397.2L362,397.2z"/>
<path class="st0" d="M166,481.9H75.4c-7.7,0-14.5,5.6-15.3,13.3c-1,9,6.1,16.7,14.9,16.7h90.6c7.7,0,14.5-5.6,15.3-13.3
	C181.9,489.5,174.9,481.9,166,481.9z"/>
<path class="st0" d="M437,481.9h-90.6c-7.7,0-14.5,5.6-15.3,13.3c-1,9,6.1,16.7,14.9,16.7h90.6c7.7,0,14.5-5.6,15.3-13.3
	C452.9,489.5,445.8,481.9,437,481.9L437,481.9z"/>
<path class="st0" d="M286,481.9h-59.6c-7.7,0-14.5,5.6-15.3,13.3c-1,9,6.1,16.7,14.9,16.7h59.6c7.7,0,14.5-5.6,15.3-13.3
	C301.9,489.5,294.8,481.9,286,481.9L286,481.9z"/>
<ellipse transform="matrix(5.050306e-03 -1 1 5.050306e-03 -482.0158 509.5508)" class="st0" cx="15.1" cy="497" rx="15" ry="15"/>
<ellipse transform="matrix(8.248034e-02 -0.9966 0.9966 8.248034e-02 -39.3546 951.2609)" class="st0" cx="496.9" cy="497" rx="15" ry="15"/>
</svg>
